<svg id="gob-icon"
  xmlns="http://www.w3.org/2000/svg" width="48.535" height="45.306" viewBox="0 0 48.535 45.306">
  <path id="Path_1" data-name="Path 1" d="M19.26,2.49V1.983H20.3V1.321h-.428V1.74H19.26V.645h.1V0h-.446V.645h.1v1.1H18.4V1.322h-.428v.662h1.039v.507a3.577,3.577,0,0,0-3.425,3.65h7.085A3.581,3.581,0,0,0,19.26,2.49Z" transform="translate(5.184)" fill="#ffffff"/>
  <path id="Path_2" data-name="Path 2" d="M14.921,5.73h8.932a.138.138,0,0,0,.138-.138V5.061a.138.138,0,0,0-.138-.138H14.921a.138.138,0,0,0-.138.138v.531A.138.138,0,0,0,14.921,5.73Z" transform="translate(4.916 1.637)" fill="#ffffff"/>
  <path id="Path_3" data-name="Path 3" d="M14.921,10.808h8.932a.138.138,0,0,0,.138-.138v-.531A.138.138,0,0,0,23.853,10H14.921a.138.138,0,0,0-.138.138v.531A.137.137,0,0,0,14.921,10.808Z" transform="translate(4.916 3.326)" fill="#ffffff"/>
  <path id="Path_4" data-name="Path 4" d="M16.163,5.825a.26.26,0,0,0-.26.26v4.649a.26.26,0,0,0,.26.26h1.077a.26.26,0,0,0,.26-.26V6.085a.26.26,0,0,0-.26-.26Z" transform="translate(5.288 1.937)" fill="#ffffff"/>
  <path id="Path_5" data-name="Path 5" d="M17.9,5.825a.26.26,0,0,0-.26.26v4.649a.26.26,0,0,0,.26.26h1.077a.26.26,0,0,0,.26-.26V6.085a.26.26,0,0,0-.26-.26Z" transform="translate(5.865 1.937)" fill="#ffffff"/>
  <path id="Path_6" data-name="Path 6" d="M19.607,5.825a.26.26,0,0,0-.26.26v4.649a.26.26,0,0,0,.26.26h1.077a.26.26,0,0,0,.26-.26V6.085a.26.26,0,0,0-.26-.26Z" transform="translate(6.433 1.937)" fill="#ffffff"/>
  <path id="Path_7" data-name="Path 7" d="M5.479,27.452A27.353,27.353,0,0,1,10.06,17.2a24.877,24.877,0,0,1,6.6-6.093,24,24,0,0,0-10.3,7.4A24.3,24.3,0,0,0,1.109,33.25H4.555A33.375,33.375,0,0,1,5.479,27.452Z" transform="translate(0.369 3.693)" fill="#ffffff"/>
  <path id="Path_8" data-name="Path 8" d="M30.349,17.2a27.346,27.346,0,0,1,4.58,10.254,33.364,33.364,0,0,1,.925,5.8H39.3A24.308,24.308,0,0,0,34.047,18.5a24,24,0,0,0-10.3-7.4A24.86,24.86,0,0,1,30.349,17.2Z" transform="translate(7.898 3.693)" fill="#ffffff"/>
  <path id="Path_9" data-name="Path 9" d="M18.383,11.736A22.389,22.389,0,0,0,13,15.434C6.309,21.673,5.531,30.261,5.4,33.042h5.968a33,33,0,0,1,3.026-14.876A32.075,32.075,0,0,1,18.383,11.736Z" transform="translate(1.795 3.903)" fill="#ffffff"/>
  <path id="Path_10" data-name="Path 10" d="M34.277,33.042c-.134-2.78-.912-11.367-7.606-17.608a22.389,22.389,0,0,0-5.379-3.7,32.1,32.1,0,0,1,3.992,6.429,33,33,0,0,1,3.026,14.876Z" transform="translate(7.08 3.903)" fill="#ffffff"/>
  <path id="Path_11" data-name="Path 11" d="M19.35,33.042V11.736a29.168,29.168,0,0,0-5.2,7.858,29.545,29.545,0,0,0-2.528,13.448Z" transform="translate(3.853 3.903)" fill="#ffffff"/>
  <path id="Path_12" data-name="Path 12" d="M19.1,11.736V33.042h7.732a29.545,29.545,0,0,0-2.528-13.448A29.215,29.215,0,0,0,19.1,11.736Z" transform="translate(6.353 3.903)" fill="#ffffff"/>
  <path id="Path_13" data-name="Path 13" d="M43.8,29.262V28.54a.276.276,0,0,0-.276-.276H41.562a.276.276,0,0,0-.276.276v.722H35.548V28.54a.276.276,0,0,0-.276-.276H33.311a.276.276,0,0,0-.276.276v.722H25.523V28.54a.276.276,0,0,0-.276-.276H23.286a.276.276,0,0,0-.276.276v.722h-7.43V28.54a.276.276,0,0,0-.276-.276H13.344a.276.276,0,0,0-.276.276v.722H7.31V28.54a.276.276,0,0,0-.276-.276H5.073a.276.276,0,0,0-.276.276v.722H0v.863H48.534v-.863Z" transform="translate(0.001 9.399)" fill="#ffffff"/>
  <path id="Path_14" data-name="Path 14" d="M5.81,32.68a.3.3,0,0,0,.3-.3v-2.3H3.6v2.3a.3.3,0,0,0,.3.3Z" transform="translate(1.197 10.002)" fill="#ffffff"/>
  <path id="Path_15" data-name="Path 15" d="M12.017,32.68a.3.3,0,0,0,.3-.3v-2.3H9.807v2.3a.3.3,0,0,0,.3.3Z" transform="translate(3.261 10.002)" fill="#ffffff"/>
  <path id="Path_16" data-name="Path 16" d="M19.479,32.68a.3.3,0,0,0,.3-.3v-2.3H17.269v2.3a.3.3,0,0,0,.3.3Z" transform="translate(5.742 10.002)" fill="#ffffff"/>
  <path id="Path_17" data-name="Path 17" d="M27,32.68a.3.3,0,0,0,.3-.3v-2.3H24.791v2.3a.3.3,0,0,0,.3.3Z" transform="translate(8.244 10.002)" fill="#ffffff"/>
  <path id="Path_18" data-name="Path 18" d="M33.195,32.68a.3.3,0,0,0,.3-.3v-2.3H30.984v2.3a.3.3,0,0,0,.3.3Z" transform="translate(10.303 10.002)" fill="#ffffff"/>
  <path id="Path_19" data-name="Path 19" d="M48.205,32.577H.326A.326.326,0,0,0,0,32.9v1.244a.326.326,0,0,0,.326.326H48.2a.326.326,0,0,0,.326-.326V32.9A.325.325,0,0,0,48.205,32.577Z" transform="translate(0 10.833)" fill="#ffffff"/>
</svg>
